# xmcd
#
# Track frame offsets: 
#        150
#        23074
#        44364
#        61214
#        86537
#        105697
#        126969
#        145622
#        166468
#        189534
#        212764
#        232094
#
# Disc length: 3371 seconds
#
# Revision: 2
# Processed by: cddbd v1.5.2PL0 Copyright (c) Steve Scherf et al.
# Submitted via: ExactAudioCopy v0.99pb5
#
DISCID=a40d290c
DTITLE=Marc Antoine - The Very Best Of
DYEAR=2003
DGENRE=Jazz
TTITLE0=Latin Quarter
TTITLE1=Madrid
TTITLE2=Mas Que Nada
TTITLE3=Unity
TTITLE4=Sand Castle
TTITLE5=On The Strip
TTITLE6=Children At Play
TTITLE7=Sunland
TTITLE8=Palm Strings
TTITLE9=Follow Your Bliss
TTITLE10=Cruisin'
TTITLE11=Concache
EXTD=YEAR: 2003
EXTT0=
EXTT1=
EXTT2=
EXTT3=
EXTT4=
EXTT5=
EXTT6=
EXTT7=
EXTT8=
EXTT9=
EXTT10=
EXTT11=
PLAYORDER=
